<svg width="79" height="13" viewBox="0 0 79 13" fill="none" xmlns="http://www.w3.org/2000/svg">
<path d="M0.0440001 10V1.264H1.472L4.322 6.844L4.838 8.068L5.348 6.826L8.216 1.264H9.62V10H8.612V2.494L8.204 3.424L5.204 9.34H4.448L1.424 3.352L1.064 2.392V10H0.0440001ZM13.8222 12.964C13.5182 12.964 13.1822 12.93 12.8142 12.862C12.4462 12.798 12.1102 12.71 11.8062 12.598L11.9202 11.68C12.1962 11.816 12.5002 11.926 12.8322 12.01C13.1682 12.098 13.4702 12.142 13.7382 12.142C14.3662 12.142 14.8722 11.97 15.2562 11.626C15.6402 11.282 15.8322 10.828 15.8322 10.264V9.232C15.3722 9.832 14.7162 10.132 13.8642 10.132C13.4762 10.132 13.1062 10.058 12.7542 9.91C12.4022 9.758 12.1182 9.512 11.9022 9.172C11.6862 8.832 11.5862 8.378 11.6022 7.81L11.6382 6.508C11.6582 5.868 11.6382 5.37 11.5782 5.014C11.5222 4.658 11.4622 4.406 11.3982 4.258C11.3342 4.106 11.2962 4.02 11.2842 4L12.2742 3.844C12.2822 3.864 12.3182 3.944 12.3822 4.084C12.4502 4.224 12.5122 4.478 12.5682 4.846C12.6282 5.21 12.6482 5.738 12.6282 6.43L12.5922 7.81C12.5842 8.202 12.6482 8.506 12.7842 8.722C12.9202 8.938 13.0982 9.09 13.3182 9.178C13.5382 9.262 13.7702 9.304 14.0142 9.304C14.3462 9.304 14.6482 9.23 14.9202 9.082C15.1962 8.934 15.4162 8.722 15.5802 8.446C15.7482 8.166 15.8322 7.83 15.8322 7.438V3.844H16.8162V10.138C16.8162 10.702 16.6902 11.196 16.4382 11.62C16.1902 12.044 15.8422 12.374 15.3942 12.61C14.9462 12.846 14.4222 12.964 13.8222 12.964ZM22.6694 10.132C21.7894 10.132 21.0334 9.942 20.4014 9.562C19.7694 9.178 19.2854 8.65 18.9494 7.978C18.6134 7.302 18.4454 6.524 18.4454 5.644C18.4454 4.76 18.6194 3.976 18.9674 3.292C19.3194 2.608 19.8114 2.072 20.4434 1.684C21.0794 1.296 21.8254 1.102 22.6814 1.102C23.3414 1.102 23.8874 1.192 24.3194 1.372C24.7514 1.548 25.1314 1.76 25.4594 2.008L24.9854 2.764C24.6814 2.532 24.3434 2.35 23.9714 2.218C23.5994 2.082 23.2074 2.014 22.7954 2.014C22.0874 2.014 21.4914 2.172 21.0074 2.488C20.5274 2.8 20.1634 3.23 19.9154 3.778C19.6674 4.322 19.5434 4.946 19.5434 5.65C19.5434 6.334 19.6574 6.946 19.8854 7.486C20.1174 8.022 20.4654 8.446 20.9294 8.758C21.3974 9.066 21.9874 9.22 22.6994 9.22C23.2434 9.22 23.7194 9.15 24.1274 9.01C24.5394 8.866 24.8974 8.662 25.2014 8.398L25.5434 9.238C25.1874 9.526 24.7694 9.748 24.2894 9.904C23.8134 10.056 23.2734 10.132 22.6694 10.132ZM27.2272 10V5.806C27.2272 5.458 27.1672 5.154 27.0472 4.894C26.9272 4.634 26.7972 4.388 26.6572 4.156L27.6472 3.844C27.7552 4.008 27.8532 4.174 27.9412 4.342C28.0292 4.506 28.0892 4.684 28.1212 4.876C28.2812 4.552 28.5152 4.278 28.8232 4.054C29.1352 3.826 29.4812 3.712 29.8612 3.712C30.1092 3.712 30.2972 3.724 30.4252 3.748C30.5572 3.772 30.6772 3.8 30.7852 3.832L30.7012 4.702C30.6492 4.682 30.5552 4.654 30.4192 4.618C30.2832 4.578 30.0872 4.558 29.8312 4.558C29.3952 4.558 29.0152 4.722 28.6912 5.05C28.3712 5.374 28.2112 5.888 28.2112 6.592V10H27.2272ZM34.5421 10.132C33.9341 10.132 33.3901 10 32.9101 9.736C32.4341 9.472 32.0581 9.098 31.7821 8.614C31.5061 8.13 31.3681 7.56 31.3681 6.904C31.3681 6.34 31.4901 5.816 31.7341 5.332C31.9821 4.848 32.3381 4.458 32.8021 4.162C33.2701 3.862 33.8321 3.712 34.4881 3.712C34.9201 3.712 35.2941 3.792 35.6101 3.952C35.9301 4.108 36.1761 4.32 36.3481 4.588C36.5241 4.856 36.6121 5.158 36.6121 5.494C36.6121 5.982 36.4341 6.374 36.0781 6.67C35.7221 6.966 35.2361 7.198 34.6201 7.366C34.0081 7.53 33.3141 7.666 32.5381 7.774C32.6181 8.078 32.7601 8.346 32.9641 8.578C33.1681 8.806 33.4081 8.984 33.6841 9.112C33.9601 9.24 34.2461 9.304 34.5421 9.304C34.9581 9.304 35.3401 9.226 35.6881 9.07C36.0401 8.91 36.3161 8.716 36.5161 8.488L37.0141 9.124C36.7141 9.432 36.3461 9.678 35.9101 9.862C35.4781 10.042 35.0221 10.132 34.5421 10.132ZM32.4661 7.06C33.0821 6.972 33.6281 6.866 34.1041 6.742C34.5801 6.618 34.9541 6.456 35.2261 6.256C35.4981 6.052 35.6341 5.79 35.6341 5.47C35.6341 5.198 35.5341 4.978 35.3341 4.81C35.1381 4.642 34.8581 4.558 34.4941 4.558C34.1621 4.558 33.8381 4.64 33.5221 4.804C33.2101 4.964 32.9521 5.208 32.7481 5.536C32.5481 5.86 32.4481 6.27 32.4481 6.766C32.4481 6.866 32.4541 6.964 32.4661 7.06ZM40.616 10.132C40.052 10.132 39.558 10.002 39.134 9.742C38.71 9.482 38.38 9.116 38.144 8.644C37.908 8.172 37.79 7.622 37.79 6.994C37.79 6.374 37.896 5.818 38.108 5.326C38.324 4.83 38.642 4.438 39.062 4.15C39.482 3.858 40 3.712 40.616 3.712C41.012 3.712 41.374 3.772 41.702 3.892C42.03 4.012 42.358 4.214 42.686 4.498V0.964L43.676 0.844V7.66C43.676 8.116 43.7 8.488 43.748 8.776C43.8 9.06 43.866 9.292 43.946 9.472C44.03 9.652 44.116 9.808 44.204 9.94L43.232 10.078C43.12 9.942 43.016 9.768 42.92 9.556C42.828 9.34 42.776 9.134 42.764 8.938C42.584 9.314 42.302 9.608 41.918 9.82C41.534 10.028 41.1 10.132 40.616 10.132ZM40.724 9.304C41.204 9.304 41.588 9.194 41.876 8.974C42.164 8.754 42.372 8.456 42.5 8.08C42.628 7.7 42.692 7.272 42.692 6.796V5.536C42.468 5.236 42.178 4.998 41.822 4.822C41.47 4.646 41.116 4.558 40.76 4.558C40.308 4.558 39.938 4.664 39.65 4.876C39.362 5.088 39.15 5.376 39.014 5.74C38.878 6.1 38.81 6.506 38.81 6.958C38.81 7.422 38.89 7.832 39.05 8.188C39.214 8.54 39.44 8.814 39.728 9.01C40.016 9.206 40.348 9.304 40.724 9.304ZM48.3234 10.132C47.7154 10.132 47.1714 10 46.6914 9.736C46.2154 9.472 45.8394 9.098 45.5634 8.614C45.2874 8.13 45.1494 7.56 45.1494 6.904C45.1494 6.34 45.2714 5.816 45.5154 5.332C45.7634 4.848 46.1194 4.458 46.5834 4.162C47.0514 3.862 47.6134 3.712 48.2694 3.712C48.7014 3.712 49.0754 3.792 49.3914 3.952C49.7114 4.108 49.9574 4.32 50.1294 4.588C50.3054 4.856 50.3934 5.158 50.3934 5.494C50.3934 5.982 50.2154 6.374 49.8594 6.67C49.5034 6.966 49.0174 7.198 48.4014 7.366C47.7894 7.53 47.0954 7.666 46.3194 7.774C46.3994 8.078 46.5414 8.346 46.7454 8.578C46.9494 8.806 47.1894 8.984 47.4654 9.112C47.7414 9.24 48.0274 9.304 48.3234 9.304C48.7394 9.304 49.1214 9.226 49.4694 9.07C49.8214 8.91 50.0974 8.716 50.2974 8.488L50.7954 9.124C50.4954 9.432 50.1274 9.678 49.6914 9.862C49.2594 10.042 48.8034 10.132 48.3234 10.132ZM46.2474 7.06C46.8634 6.972 47.4094 6.866 47.8854 6.742C48.3614 6.618 48.7354 6.456 49.0074 6.256C49.2794 6.052 49.4154 5.79 49.4154 5.47C49.4154 5.198 49.3154 4.978 49.1154 4.81C48.9194 4.642 48.6394 4.558 48.2754 4.558C47.9434 4.558 47.6194 4.64 47.3034 4.804C46.9914 4.964 46.7334 5.208 46.5294 5.536C46.3294 5.86 46.2294 6.27 46.2294 6.766C46.2294 6.866 46.2354 6.964 46.2474 7.06ZM57.9793 10.114C57.5433 10.178 57.2113 10.154 56.9833 10.042C56.7553 9.93 56.5993 9.73 56.5153 9.442C56.4313 9.15 56.3893 8.768 56.3893 8.296V6.628C56.3893 5.9 56.2893 5.374 56.0893 5.05C55.8893 4.722 55.5573 4.558 55.0933 4.558C54.8053 4.558 54.5113 4.63 54.2113 4.774C53.9153 4.914 53.6613 5.136 53.4493 5.44C53.2413 5.74 53.1213 6.13 53.0893 6.61V10H52.1053V5.806C52.1053 5.458 52.0453 5.154 51.9253 4.894C51.8053 4.634 51.6753 4.388 51.5353 4.156L52.5253 3.844C52.6333 4.008 52.7313 4.176 52.8193 4.348C52.9113 4.516 52.9713 4.698 52.9993 4.894C53.1793 4.538 53.4853 4.252 53.9173 4.036C54.3533 3.82 54.8153 3.712 55.3033 3.712C55.9993 3.712 56.5193 3.942 56.8633 4.402C57.2073 4.858 57.3793 5.594 57.3793 6.61V8.08C57.3793 8.384 57.3853 8.634 57.3973 8.83C57.4093 9.026 57.4633 9.164 57.5593 9.244C57.6553 9.32 57.8273 9.334 58.0753 9.286L57.9793 10.114ZM61.8795 10.048C61.1835 10.048 60.6775 9.902 60.3615 9.61C60.0455 9.318 59.8875 8.848 59.8875 8.2V4.486H58.6695V3.844H59.9175V2.212L60.8715 1.93V3.844H62.8935V4.486H60.8715V8.212C60.8715 8.588 60.9615 8.862 61.1415 9.034C61.3215 9.202 61.6055 9.286 61.9935 9.286C62.0855 9.286 62.2035 9.274 62.3475 9.25C62.4955 9.226 62.6435 9.196 62.7915 9.16C62.9395 9.124 63.0595 9.088 63.1515 9.052L63.2655 9.79C63.0775 9.854 62.8415 9.914 62.5575 9.97C62.2775 10.022 62.0515 10.048 61.8795 10.048ZM66.0454 10.03C65.7614 10.03 65.4974 9.976 65.2534 9.868C65.0094 9.76 64.8134 9.582 64.6654 9.334C64.5174 9.086 64.4434 8.752 64.4434 8.332V3.844H65.4334V8.302C65.4334 8.722 65.5074 8.992 65.6554 9.112C65.8034 9.232 65.9794 9.292 66.1834 9.292C66.2754 9.292 66.3954 9.28 66.5434 9.256C66.6914 9.228 66.8174 9.194 66.9214 9.154L67.0414 9.82C66.8934 9.88 66.7254 9.93 66.5374 9.97C66.3494 10.01 66.1854 10.03 66.0454 10.03ZM64.4254 2.572V1.498H65.4814V2.572H64.4254ZM70.0751 10.132C69.5751 10.132 69.1371 10.018 68.7611 9.79C68.3891 9.558 68.0991 9.236 67.8911 8.824C67.6831 8.408 67.5791 7.924 67.5791 7.372C67.5791 6.64 67.7231 6 68.0111 5.452C68.2991 4.904 68.7011 4.478 69.2171 4.174C69.7371 3.866 70.3431 3.712 71.0351 3.712C71.4391 3.712 71.8371 3.76 72.2291 3.856C72.6211 3.948 72.9371 4.072 73.1771 4.228V8.284C73.1771 8.548 73.2451 8.762 73.3811 8.926C73.5211 9.086 73.7031 9.166 73.9271 9.166L73.7231 10.024C73.3751 10.024 73.0731 9.93 72.8171 9.742C72.5611 9.554 72.3991 9.308 72.3311 9.004C72.1271 9.344 71.8191 9.618 71.4071 9.826C70.9951 10.03 70.5511 10.132 70.0751 10.132ZM70.2251 9.304C70.6211 9.304 70.9651 9.216 71.2571 9.04C71.5531 8.86 71.7831 8.618 71.9471 8.314C72.1111 8.01 72.1931 7.666 72.1931 7.282V4.768C72.0691 4.704 71.8991 4.654 71.6831 4.618C71.4671 4.578 71.2451 4.558 71.0171 4.558C70.5331 4.558 70.1091 4.674 69.7451 4.906C69.3851 5.134 69.1031 5.454 68.8991 5.866C68.6991 6.278 68.5991 6.76 68.5991 7.312C68.5991 7.908 68.7471 8.39 69.0431 8.758C69.3431 9.122 69.7371 9.304 70.2251 9.304ZM78.5895 9.79C78.1855 9.966 77.7855 10.068 77.3895 10.096C76.9975 10.128 76.6415 10.082 76.3215 9.958C76.0055 9.83 75.7515 9.622 75.5595 9.334C75.3715 9.042 75.2775 8.664 75.2775 8.2V1.024L76.2615 0.844V8.248C76.2615 8.664 76.3695 8.956 76.5855 9.124C76.8015 9.292 77.0755 9.366 77.4075 9.346C77.7435 9.322 78.0875 9.236 78.4395 9.088L78.5895 9.79Z" fill="#F0863A"/>
</svg>
